<svg xmlns="http://www.w3.org/2000/svg" viewBox="0 0 1180 318" width="1180" height="318" role="img" aria-label="GitHub stats for waseeqshah">
<title>GitHub stats - waseeqshah</title>
<defs><linearGradient id="bar" x1="0" x2="1"><stop offset="0" stop-color="#162035"/><stop offset="1" stop-color="#101827"/></linearGradient>
<linearGradient id="ln" x1="0" x2="1"><stop offset="0" stop-color="#22D3EE" stop-opacity=".6"/><stop offset=".6" stop-color="#A78BFA" stop-opacity=".3"/><stop offset="1" stop-color="#A78BFA" stop-opacity="0"/></linearGradient></defs>
<style>
text{font-family:'JetBrains Mono','SF Mono',Consolas,'Courier New',monospace}
.cell{transform-box:fill-box;transform-origin:center;animation:pop .45s ease-out backwards}
@keyframes pop{from{opacity:0;transform:scale(.3)}}
.tile{animation:rise .7s cubic-bezier(.2,.7,.2,1) backwards}
@keyframes rise{from{opacity:0;transform:translateY(10px)}}
.bar{transform-box:fill-box;transform-origin:left center;animation:grow 1.1s cubic-bezier(.2,.7,.2,1) backwards}
@keyframes grow{from{transform:scaleX(0)}}
.today{animation:ring 2s ease-in-out infinite}
@keyframes ring{50%{opacity:.15}}
.dot{animation:ring 2.4s ease-in-out infinite}
</style>
<rect x=".5" y=".5" width="1179" height="317" rx="12" fill="#0D1117" stroke="#22D3EE" stroke-opacity=".35"/>
<path d="M.5 12.5a12 12 0 0 1 12-12H1167.5a12 12 0 0 1 12 12V46H.5Z" fill="url(#bar)"/>
<rect x=".5" y="46" width="1179" height="1" fill="#22D3EE" fill-opacity=".25"/>
<circle cx="28" cy="24" r="6.5" fill="#FF5F57"/><circle cx="50" cy="24" r="6.5" fill="#FFBD2E"/><circle cx="72" cy="24" r="6.5" fill="#28CA41"/>
<text x="590.0" y="29" font-size="12" fill="#64748B" text-anchor="middle" letter-spacing="1">visitor@github: ~/stats --live</text>
<circle class="dot" cx="1146" cy="24" r="4" fill="#10B981"/>
<g class="tile" style="animation-delay:0.20s"><rect x="34.0" y="66" width="22" height="2" fill="#22D3EE"/><text x="34.0" y="88" font-size="10" fill="#64748B" letter-spacing="1.5">REPOS</text><text x="34.0" y="122" font-size="32" font-weight="700" fill="#F8FAFC">1</text></g><g class="tile" style="animation-delay:0.35s"><rect x="219.3" y="66" width="22" height="2" fill="#A78BFA"/><text x="219.3" y="88" font-size="10" fill="#64748B" letter-spacing="1.5">STARS</text><text x="219.3" y="122" font-size="32" font-weight="700" fill="#F8FAFC">0</text></g><g class="tile" style="animation-delay:0.50s"><rect x="404.7" y="66" width="22" height="2" fill="#22D3EE"/><text x="404.7" y="88" font-size="10" fill="#64748B" letter-spacing="1.5">FOLLOWERS</text><text x="404.7" y="122" font-size="32" font-weight="700" fill="#F8FAFC">0</text></g><g class="tile" style="animation-delay:0.65s"><rect x="590.0" y="66" width="22" height="2" fill="#A78BFA"/><text x="590.0" y="88" font-size="10" fill="#64748B" letter-spacing="1.5">CONTRIBUTIONS · 12M</text><text x="590.0" y="122" font-size="32" font-weight="700" fill="#F8FAFC">11</text></g><g class="tile" style="animation-delay:0.80s"><rect x="775.3" y="66" width="22" height="2" fill="#22D3EE"/><text x="775.3" y="88" font-size="10" fill="#64748B" letter-spacing="1.5">CURRENT STREAK</text><text x="775.3" y="122" font-size="32" font-weight="700" fill="#F8FAFC">1<tspan font-size="12" fill="#64748B" dx="6">day</tspan></text></g><g class="tile" style="animation-delay:0.95s"><rect x="960.7" y="66" width="22" height="2" fill="#A78BFA"/><text x="960.7" y="88" font-size="10" fill="#64748B" letter-spacing="1.5">LONGEST STREAK</text><text x="960.7" y="122" font-size="32" font-weight="700" fill="#F8FAFC">1<tspan font-size="12" fill="#64748B" dx="6">day</tspan></text></g>
<rect x="34" y="134" width="1112" height="1" fill="url(#ln)"/>
<text x="34" y="152" font-size="10" fill="#64748B">Oct</text><text x="90" y="152" font-size="10" fill="#64748B">Nov</text><text x="160" y="152" font-size="10" fill="#64748B">Dec</text><text x="216" y="152" font-size="10" fill="#64748B">Jan</text><text x="272" y="152" font-size="10" fill="#64748B">Feb</text><text x="328" y="152" font-size="10" fill="#64748B">Mar</text><text x="398" y="152" font-size="10" fill="#64748B">Apr</text><text x="454" y="152" font-size="10" fill="#64748B">May</text><text x="524" y="152" font-size="10" fill="#64748B">Jun</text><text x="580" y="152" font-size="10" fill="#64748B">Jul</text><text x="636" y="152" font-size="10" fill="#64748B">Aug</text><text x="706" y="152" font-size="10" fill="#64748B">Sep</text><text x="762" y="152" font-size="10" fill="#64748B">Oct</text>
<rect class="cell" x="34" y="160" width="11" height="11" rx="2.5" fill="#161B22" style="animation-delay:0.35s"/><rect class="cell" x="34" y="174" width="11" height="11" rx="2.5" fill="#161B22" style="animation-delay:0.35s"/><rect class="cell" x="34" y="188" width="11" height="11" rx="2.5" fill="#161B22" style="animation-delay:0.35s"/><rect class="cell" x="34" y="202" width="11" height="11" rx="2.5" fill="#161B22" style="animation-delay:0.35s"/><rect class="cell" x="34" y="216" width="11" height="11" rx="2.5" fill="#161B22" style="animation-delay:0.35s"/><rect class="cell" x="34" y="230" width="11" height="11" rx="2.5" fill="#161B22" style="animation-delay:0.35s"/><rect class="cell" x="34" y="244" width="11" height="11" rx="2.5" fill="#161B22" style="animation-delay:0.35s"/><rect class="cell" x="48" y="160" width="11" height="11" rx="2.5" fill="#161B22" style="animation-delay:0.37s"/><rect class="cell" x="48" y="174" width="11" height="11" rx="2.5" fill="#161B22" style="animation-delay:0.37s"/><rect class="cell" x="48" y="188" width="11" height="11" rx="2.5" fill="#161B22" style="animation-delay:0.37s"/><rect class="cell" x="48" y="202" width="11" height="11" rx="2.5" fill="#161B22" style="animation-delay:0.37s"/><rect class="cell" x="48" y="216" width="11" height="11" rx="2.5" fill="#161B22" style="animation-delay:0.37s"/><rect class="cell" x="48" y="230" width="11" height="11" rx="2.5" fill="#161B22" style="animation-delay:0.37s"/><rect class="cell" x="48" y="244" width="11" height="11" rx="2.5" fill="#161B22" style="animation-delay:0.37s"/><rect class="cell" x="62" y="160" width="11" height="11" rx="2.5" fill="#161B22" style="animation-delay:0.39s"/><rect class="cell" x="62" y="174" width="11" height="11" rx="2.5" fill="#161B22" style="animation-delay:0.39s"/><rect class="cell" x="62" y="188" width="11" height="11" rx="2.5" fill="#161B22" style="animation-delay:0.39s"/><rect class="cell" x="62" y="202" width="11" height="11" rx="2.5" fill="#161B22" style="animation-delay:0.39s"/><rect class="cell" x="62" y="216" width="11" height="11" rx="2.5" fill="#161B22" style="animation-delay:0.39s"/><rect class="cell" x="62" y="230" width="11" height="11" rx="2.5" fill="#161B22" style="animation-delay:0.39s"/><rect class="cell" x="62" y="244" width="11" height="11" rx="2.5" fill="#161B22" style="animation-delay:0.39s"/><rect class="cell" x="76" y="160" width="11" height="11" rx="2.5" fill="#161B22" style="animation-delay:0.41s"/><rect class="cell" x="76" y="174" width="11" height="11" rx="2.5" fill="#161B22" style="animation-delay:0.41s"/><rect class="cell" x="76" y="188" width="11" height="11" rx="2.5" fill="#161B22" style="animation-delay:0.41s"/><rect class="cell" x="76" y="202" width="11" height="11" rx="2.5" fill="#161B22" style="animation-delay:0.41s"/><rect class="cell" x="76" y="216" width="11" height="11" rx="2.5" fill="#161B22" style="animation-delay:0.41s"/><rect class="cell" x="76" y="230" width="11" height="11" rx="2.5" fill="#161B22" style="animation-delay:0.41s"/><rect class="cell" x="76" y="244" width="11" height="11" rx="2.5" fill="#161B22" style="animation-delay:0.41s"/><rect class="cell" x="90" y="160" width="11" height="11" rx="2.5" fill="#161B22" style="animation-delay:0.43s"/><rect class="cell" x="90" y="174" width="11" height="11" rx="2.5" fill="#161B22" style="animation-delay:0.43s"/><rect class="cell" x="90" y="188" width="11" height="11" rx="2.5" fill="#161B22" style="animation-delay:0.43s"/><rect class="cell" x="90" y="202" width="11" height="11" rx="2.5" fill="#161B22" style="animation-delay:0.43s"/><rect class="cell" x="90" y="216" width="11" height="11" rx="2.5" fill="#161B22" style="animation-delay:0.43s"/><rect class="cell" x="90" y="230" width="11" height="11" rx="2.5" fill="#161B22" style="animation-delay:0.43s"/><rect class="cell" x="90" y="244" width="11" height="11" rx="2.5" fill="#161B22" style="animation-delay:0.43s"/><rect class="cell" x="104" y="160" width="11" height="11" rx="2.5" fill="#161B22" style="animation-delay:0.45s"/><rect class="cell" x="104" y="174" width="11" height="11" rx="2.5" fill="#161B22" style="animation-delay:0.45s"/><rect class="cell" x="104" y="188" width="11" height="11" rx="2.5" fill="#161B22" style="animation-delay:0.45s"/><rect class="cell" x="104" y="202" width="11" height="11" rx="2.5" fill="#161B22" style="animation-delay:0.45s"/><rect class="cell" x="104" y="216" width="11" height="11" rx="2.5" fill="#161B22" style="animation-delay:0.45s"/><rect class="cell" x="104" y="230" width="11" height="11" rx="2.5" fill="#161B22" style="animation-delay:0.45s"/><rect class="cell" x="104" y="244" width="11" height="11" rx="2.5" fill="#161B22" style="animation-delay:0.45s"/><rect class="cell" x="118" y="160" width="11" height="11" rx="2.5" fill="#161B22" style="animation-delay:0.47s"/><rect class="cell" x="118" y="174" width="11" height="11" rx="2.5" fill="#161B22" style="animation-delay:0.47s"/><rect class="cell" x="118" y="188" width="11" height="11" rx="2.5" fill="#161B22" style="animation-delay:0.47s"/><rect class="cell" x="118" y="202" width="11" height="11" rx="2.5" fill="#161B22" style="animation-delay:0.47s"/><rect class="cell" x="118" y="216" width="11" height="11" rx="2.5" fill="#161B22" style="animation-delay:0.47s"/><rect class="cell" x="118" y="230" width="11" height="11" rx="2.5" fill="#161B22" style="animation-delay:0.47s"/><rect class="cell" x="118" y="244" width="11" height="11" rx="2.5" fill="#161B22" style="animation-delay:0.47s"/><rect class="cell" x="132" y="160" width="11" height="11" rx="2.5" fill="#161B22" style="animation-delay:0.49s"/><rect class="cell" x="132" y="174" width="11" height="11" rx="2.5" fill="#161B22" style="animation-delay:0.49s"/><rect class="cell" x="132" y="188" width="11" height="11" rx="2.5" fill="#161B22" style="animation-delay:0.49s"/><rect class="cell" x="132" y="202" width="11" height="11" rx="2.5" fill="#161B22" style="animation-delay:0.49s"/><rect class="cell" x="132" y="216" width="11" height="11" rx="2.5" fill="#161B22" style="animation-delay:0.49s"/><rect class="cell" x="132" y="230" width="11" height="11" rx="2.5" fill="#161B22" style="animation-delay:0.49s"/><rect class="cell" x="132" y="244" width="11" height="11" rx="2.5" fill="#161B22" style="animation-delay:0.49s"/><rect class="cell" x="146" y="160" width="11" height="11" rx="2.5" fill="#161B22" style="animation-delay:0.51s"/><rect class="cell" x="146" y="174" width="11" height="11" rx="2.5" fill="#161B22" style="animation-delay:0.51s"/><rect class="cell" x="146" y="188" width="11" height="11" rx="2.5" fill="#161B22" style="animation-delay:0.51s"/><rect class="cell" x="146" y="202" width="11" height="11" rx="2.5" fill="#161B22" style="animation-delay:0.51s"/><rect class="cell" x="146" y="216" width="11" height="11" rx="2.5" fill="#161B22" style="animation-delay:0.51s"/><rect class="cell" x="146" y="230" width="11" height="11" rx="2.5" fill="#161B22" style="animation-delay:0.51s"/><rect class="cell" x="146" y="244" width="11" height="11" rx="2.5" fill="#161B22" style="animation-delay:0.51s"/><rect class="cell" x="160" y="160" width="11" height="11" rx="2.5" fill="#161B22" style="animation-delay:0.53s"/><rect class="cell" x="160" y="174" width="11" height="11" rx="2.5" fill="#161B22" style="animation-delay:0.53s"/><rect class="cell" x="160" y="188" width="11" height="11" rx="2.5" fill="#161B22" style="animation-delay:0.53s"/><rect class="cell" x="160" y="202" width="11" height="11" rx="2.5" fill="#161B22" style="animation-delay:0.53s"/><rect class="cell" x="160" y="216" width="11" height="11" rx="2.5" fill="#161B22" style="animation-delay:0.53s"/><rect class="cell" x="160" y="230" width="11" height="11" rx="2.5" fill="#161B22" style="animation-delay:0.53s"/><rect class="cell" x="160" y="244" width="11" height="11" rx="2.5" fill="#161B22" style="animation-delay:0.53s"/><rect class="cell" x="174" y="160" width="11" height="11" rx="2.5" fill="#161B22" style="animation-delay:0.55s"/><rect class="cell" x="174" y="174" width="11" height="11" rx="2.5" fill="#161B22" style="animation-delay:0.55s"/><rect class="cell" x="174" y="188" width="11" height="11" rx="2.5" fill="#161B22" style="animation-delay:0.55s"/><rect class="cell" x="174" y="202" width="11" height="11" rx="2.5" fill="#161B22" style="animation-delay:0.55s"/><rect class="cell" x="174" y="216" width="11" height="11" rx="2.5" fill="#161B22" style="animation-delay:0.55s"/><rect class="cell" x="174" y="230" width="11" height="11" rx="2.5" fill="#161B22" style="animation-delay:0.55s"/><rect class="cell" x="174" y="244" width="11" height="11" rx="2.5" fill="#161B22" style="animation-delay:0.55s"/><rect class="cell" x="188" y="160" width="11" height="11" rx="2.5" fill="#161B22" style="animation-delay:0.57s"/><rect class="cell" x="188" y="174" width="11" height="11" rx="2.5" fill="#161B22" style="animation-delay:0.57s"/><rect class="cell" x="188" y="188" width="11" height="11" rx="2.5" fill="#161B22" style="animation-delay:0.57s"/><rect class="cell" x="188" y="202" width="11" height="11" rx="2.5" fill="#161B22" style="animation-delay:0.57s"/><rect class="cell" x="188" y="216" width="11" height="11" rx="2.5" fill="#161B22" style="animation-delay:0.57s"/><rect class="cell" x="188" y="230" width="11" height="11" rx="2.5" fill="#161B22" style="animation-delay:0.57s"/><rect class="cell" x="188" y="244" width="11" height="11" rx="2.5" fill="#161B22" style="animation-delay:0.57s"/><rect class="cell" x="202" y="160" width="11" height="11" rx="2.5" fill="#161B22" style="animation-delay:0.59s"/><rect class="cell" x="202" y="174" width="11" height="11" rx="2.5" fill="#161B22" style="animation-delay:0.59s"/><rect class="cell" x="202" y="188" width="11" height="11" rx="2.5" fill="#161B22" style="animation-delay:0.59s"/><rect class="cell" x="202" y="202" width="11" height="11" rx="2.5" fill="#161B22" style="animation-delay:0.59s"/><rect class="cell" x="202" y="216" width="11" height="11" rx="2.5" fill="#161B22" style="animation-delay:0.59s"/><rect class="cell" x="202" y="230" width="11" height="11" rx="2.5" fill="#161B22" style="animation-delay:0.59s"/><rect class="cell" x="202" y="244" width="11" height="11" rx="2.5" fill="#161B22" style="animation-delay:0.59s"/><rect class="cell" x="216" y="160" width="11" height="11" rx="2.5" fill="#161B22" style="animation-delay:0.61s"/><rect class="cell" x="216" y="174" width="11" height="11" rx="2.5" fill="#161B22" style="animation-delay:0.61s"/><rect class="cell" x="216" y="188" width="11" height="11" rx="2.5" fill="#161B22" style="animation-delay:0.61s"/><rect class="cell" x="216" y="202" width="11" height="11" rx="2.5" fill="#161B22" style="animation-delay:0.61s"/><rect class="cell" x="216" y="216" width="11" height="11" rx="2.5" fill="#161B22" style="animation-delay:0.61s"/><rect class="cell" x="216" y="230" width="11" height="11" rx="2.5" fill="#161B22" style="animation-delay:0.61s"/><rect class="cell" x="216" y="244" width="11" height="11" rx="2.5" fill="#161B22" style="animation-delay:0.61s"/><rect class="cell" x="230" y="160" width="11" height="11" rx="2.5" fill="#161B22" style="animation-delay:0.63s"/><rect class="cell" x="230" y="174" width="11" height="11" rx="2.5" fill="#161B22" style="animation-delay:0.63s"/><rect class="cell" x="230" y="188" width="11" height="11" rx="2.5" fill="#161B22" style="animation-delay:0.63s"/><rect class="cell" x="230" y="202" width="11" height="11" rx="2.5" fill="#161B22" style="animation-delay:0.63s"/><rect class="cell" x="230" y="216" width="11" height="11" rx="2.5" fill="#161B22" style="animation-delay:0.63s"/><rect class="cell" x="230" y="230" width="11" height="11" rx="2.5" fill="#161B22" style="animation-delay:0.63s"/><rect class="cell" x="230" y="244" width="11" height="11" rx="2.5" fill="#161B22" style="animation-delay:0.63s"/><rect class="cell" x="244" y="160" width="11" height="11" rx="2.5" fill="#161B22" style="animation-delay:0.65s"/><rect class="cell" x="244" y="174" width="11" height="11" rx="2.5" fill="#161B22" style="animation-delay:0.65s"/><rect class="cell" x="244" y="188" width="11" height="11" rx="2.5" fill="#161B22" style="animation-delay:0.65s"/><rect class="cell" x="244" y="202" width="11" height="11" rx="2.5" fill="#161B22" style="animation-delay:0.65s"/><rect class="cell" x="244" y="216" width="11" height="11" rx="2.5" fill="#161B22" style="animation-delay:0.65s"/><rect class="cell" x="244" y="230" width="11" height="11" rx="2.5" fill="#161B22" style="animation-delay:0.65s"/><rect class="cell" x="244" y="244" width="11" height="11" rx="2.5" fill="#161B22" style="animation-delay:0.65s"/><rect class="cell" x="258" y="160" width="11" height="11" rx="2.5" fill="#161B22" style="animation-delay:0.67s"/><rect class="cell" x="258" y="174" width="11" height="11" rx="2.5" fill="#161B22" style="animation-delay:0.67s"/><rect class="cell" x="258" y="188" width="11" height="11" rx="2.5" fill="#161B22" style="animation-delay:0.67s"/><rect class="cell" x="258" y="202" width="11" height="11" rx="2.5" fill="#161B22" style="animation-delay:0.67s"/><rect class="cell" x="258" y="216" width="11" height="11" rx="2.5" fill="#161B22" style="animation-delay:0.67s"/><rect class="cell" x="258" y="230" width="11" height="11" rx="2.5" fill="#161B22" style="animation-delay:0.67s"/><rect class="cell" x="258" y="244" width="11" height="11" rx="2.5" fill="#161B22" style="animation-delay:0.67s"/><rect class="cell" x="272" y="160" width="11" height="11" rx="2.5" fill="#161B22" style="animation-delay:0.69s"/><rect class="cell" x="272" y="174" width="11" height="11" rx="2.5" fill="#161B22" style="animation-delay:0.69s"/><rect class="cell" x="272" y="188" width="11" height="11" rx="2.5" fill="#161B22" style="animation-delay:0.69s"/><rect class="cell" x="272" y="202" width="11" height="11" rx="2.5" fill="#161B22" style="animation-delay:0.69s"/><rect class="cell" x="272" y="216" width="11" height="11" rx="2.5" fill="#161B22" style="animation-delay:0.69s"/><rect class="cell" x="272" y="230" width="11" height="11" rx="2.5" fill="#161B22" style="animation-delay:0.69s"/><rect class="cell" x="272" y="244" width="11" height="11" rx="2.5" fill="#161B22" style="animation-delay:0.69s"/><rect class="cell" x="286" y="160" width="11" height="11" rx="2.5" fill="#161B22" style="animation-delay:0.71s"/><rect class="cell" x="286" y="174" width="11" height="11" rx="2.5" fill="#161B22" style="animation-delay:0.71s"/><rect class="cell" x="286" y="188" width="11" height="11" rx="2.5" fill="#161B22" style="animation-delay:0.71s"/><rect class="cell" x="286" y="202" width="11" height="11" rx="2.5" fill="#161B22" style="animation-delay:0.71s"/><rect class="cell" x="286" y="216" width="11" height="11" rx="2.5" fill="#161B22" style="animation-delay:0.71s"/><rect class="cell" x="286" y="230" width="11" height="11" rx="2.5" fill="#161B22" style="animation-delay:0.71s"/><rect class="cell" x="286" y="244" width="11" height="11" rx="2.5" fill="#161B22" style="animation-delay:0.71s"/><rect class="cell" x="300" y="160" width="11" height="11" rx="2.5" fill="#161B22" style="animation-delay:0.73s"/><rect class="cell" x="300" y="174" width="11" height="11" rx="2.5" fill="#161B22" style="animation-delay:0.73s"/><rect class="cell" x="300" y="188" width="11" height="11" rx="2.5" fill="#161B22" style="animation-delay:0.73s"/><rect class="cell" x="300" y="202" width="11" height="11" rx="2.5" fill="#161B22" style="animation-delay:0.73s"/><rect class="cell" x="300" y="216" width="11" height="11" rx="2.5" fill="#161B22" style="animation-delay:0.73s"/><rect class="cell" x="300" y="230" width="11" height="11" rx="2.5" fill="#161B22" style="animation-delay:0.73s"/><rect class="cell" x="300" y="244" width="11" height="11" rx="2.5" fill="#161B22" style="animation-delay:0.73s"/><rect class="cell" x="314" y="160" width="11" height="11" rx="2.5" fill="#161B22" style="animation-delay:0.75s"/><rect class="cell" x="314" y="174" width="11" height="11" rx="2.5" fill="#161B22" style="animation-delay:0.75s"/><rect class="cell" x="314" y="188" width="11" height="11" rx="2.5" fill="#161B22" style="animation-delay:0.75s"/><rect class="cell" x="314" y="202" width="11" height="11" rx="2.5" fill="#161B22" style="animation-delay:0.75s"/><rect class="cell" x="314" y="216" width="11" height="11" rx="2.5" fill="#161B22" style="animation-delay:0.75s"/><rect class="cell" x="314" y="230" width="11" height="11" rx="2.5" fill="#161B22" style="animation-delay:0.75s"/><rect class="cell" x="314" y="244" width="11" height="11" rx="2.5" fill="#161B22" style="animation-delay:0.75s"/><rect class="cell" x="328" y="160" width="11" height="11" rx="2.5" fill="#161B22" style="animation-delay:0.77s"/><rect class="cell" x="328" y="174" width="11" height="11" rx="2.5" fill="#161B22" style="animation-delay:0.77s"/><rect class="cell" x="328" y="188" width="11" height="11" rx="2.5" fill="#161B22" style="animation-delay:0.77s"/><rect class="cell" x="328" y="202" width="11" height="11" rx="2.5" fill="#161B22" style="animation-delay:0.77s"/><rect class="cell" x="328" y="216" width="11" height="11" rx="2.5" fill="#161B22" style="animation-delay:0.77s"/><rect class="cell" x="328" y="230" width="11" height="11" rx="2.5" fill="#161B22" style="animation-delay:0.77s"/><rect class="cell" x="328" y="244" width="11" height="11" rx="2.5" fill="#161B22" style="animation-delay:0.77s"/><rect class="cell" x="342" y="160" width="11" height="11" rx="2.5" fill="#161B22" style="animation-delay:0.79s"/><rect class="cell" x="342" y="174" width="11" height="11" rx="2.5" fill="#161B22" style="animation-delay:0.79s"/><rect class="cell" x="342" y="188" width="11" height="11" rx="2.5" fill="#161B22" style="animation-delay:0.79s"/><rect class="cell" x="342" y="202" width="11" height="11" rx="2.5" fill="#161B22" style="animation-delay:0.79s"/><rect class="cell" x="342" y="216" width="11" height="11" rx="2.5" fill="#161B22" style="animation-delay:0.79s"/><rect class="cell" x="342" y="230" width="11" height="11" rx="2.5" fill="#161B22" style="animation-delay:0.79s"/><rect class="cell" x="342" y="244" width="11" height="11" rx="2.5" fill="#161B22" style="animation-delay:0.79s"/><rect class="cell" x="356" y="160" width="11" height="11" rx="2.5" fill="#161B22" style="animation-delay:0.81s"/><rect class="cell" x="356" y="174" width="11" height="11" rx="2.5" fill="#161B22" style="animation-delay:0.81s"/><rect class="cell" x="356" y="188" width="11" height="11" rx="2.5" fill="#161B22" style="animation-delay:0.81s"/><rect class="cell" x="356" y="202" width="11" height="11" rx="2.5" fill="#161B22" style="animation-delay:0.81s"/><rect class="cell" x="356" y="216" width="11" height="11" rx="2.5" fill="#161B22" style="animation-delay:0.81s"/><rect class="cell" x="356" y="230" width="11" height="11" rx="2.5" fill="#161B22" style="animation-delay:0.81s"/><rect class="cell" x="356" y="244" width="11" height="11" rx="2.5" fill="#161B22" style="animation-delay:0.81s"/><rect class="cell" x="370" y="160" width="11" height="11" rx="2.5" fill="#161B22" style="animation-delay:0.83s"/><rect class="cell" x="370" y="174" width="11" height="11" rx="2.5" fill="#161B22" style="animation-delay:0.83s"/><rect class="cell" x="370" y="188" width="11" height="11" rx="2.5" fill="#161B22" style="animation-delay:0.83s"/><rect class="cell" x="370" y="202" width="11" height="11" rx="2.5" fill="#161B22" style="animation-delay:0.83s"/><rect class="cell" x="370" y="216" width="11" height="11" rx="2.5" fill="#161B22" style="animation-delay:0.83s"/><rect class="cell" x="370" y="230" width="11" height="11" rx="2.5" fill="#161B22" style="animation-delay:0.83s"/><rect class="cell" x="370" y="244" width="11" height="11" rx="2.5" fill="#161B22" style="animation-delay:0.83s"/><rect class="cell" x="384" y="160" width="11" height="11" rx="2.5" fill="#161B22" style="animation-delay:0.85s"/><rect class="cell" x="384" y="174" width="11" height="11" rx="2.5" fill="#161B22" style="animation-delay:0.85s"/><rect class="cell" x="384" y="188" width="11" height="11" rx="2.5" fill="#161B22" style="animation-delay:0.85s"/><rect class="cell" x="384" y="202" width="11" height="11" rx="2.5" fill="#161B22" style="animation-delay:0.85s"/><rect class="cell" x="384" y="216" width="11" height="11" rx="2.5" fill="#161B22" style="animation-delay:0.85s"/><rect class="cell" x="384" y="230" width="11" height="11" rx="2.5" fill="#161B22" style="animation-delay:0.85s"/><rect class="cell" x="384" y="244" width="11" height="11" rx="2.5" fill="#161B22" style="animation-delay:0.85s"/><rect class="cell" x="398" y="160" width="11" height="11" rx="2.5" fill="#161B22" style="animation-delay:0.87s"/><rect class="cell" x="398" y="174" width="11" height="11" rx="2.5" fill="#161B22" style="animation-delay:0.87s"/><rect class="cell" x="398" y="188" width="11" height="11" rx="2.5" fill="#161B22" style="animation-delay:0.87s"/><rect class="cell" x="398" y="202" width="11" height="11" rx="2.5" fill="#161B22" style="animation-delay:0.87s"/><rect class="cell" x="398" y="216" width="11" height="11" rx="2.5" fill="#161B22" style="animation-delay:0.87s"/><rect class="cell" x="398" y="230" width="11" height="11" rx="2.5" fill="#161B22" style="animation-delay:0.87s"/><rect class="cell" x="398" y="244" width="11" height="11" rx="2.5" fill="#161B22" style="animation-delay:0.87s"/><rect class="cell" x="412" y="160" width="11" height="11" rx="2.5" fill="#161B22" style="animation-delay:0.89s"/><rect class="cell" x="412" y="174" width="11" height="11" rx="2.5" fill="#161B22" style="animation-delay:0.89s"/><rect class="cell" x="412" y="188" width="11" height="11" rx="2.5" fill="#161B22" style="animation-delay:0.89s"/><rect class="cell" x="412" y="202" width="11" height="11" rx="2.5" fill="#161B22" style="animation-delay:0.89s"/><rect class="cell" x="412" y="216" width="11" height="11" rx="2.5" fill="#161B22" style="animation-delay:0.89s"/><rect class="cell" x="412" y="230" width="11" height="11" rx="2.5" fill="#161B22" style="animation-delay:0.89s"/><rect class="cell" x="412" y="244" width="11" height="11" rx="2.5" fill="#161B22" style="animation-delay:0.89s"/><rect class="cell" x="426" y="160" width="11" height="11" rx="2.5" fill="#161B22" style="animation-delay:0.91s"/><rect class="cell" x="426" y="174" width="11" height="11" rx="2.5" fill="#161B22" style="animation-delay:0.91s"/><rect class="cell" x="426" y="188" width="11" height="11" rx="2.5" fill="#161B22" style="animation-delay:0.91s"/><rect class="cell" x="426" y="202" width="11" height="11" rx="2.5" fill="#161B22" style="animation-delay:0.91s"/><rect class="cell" x="426" y="216" width="11" height="11" rx="2.5" fill="#161B22" style="animation-delay:0.91s"/><rect class="cell" x="426" y="230" width="11" height="11" rx="2.5" fill="#161B22" style="animation-delay:0.91s"/><rect class="cell" x="426" y="244" width="11" height="11" rx="2.5" fill="#161B22" style="animation-delay:0.91s"/><rect class="cell" x="440" y="160" width="11" height="11" rx="2.5" fill="#161B22" style="animation-delay:0.93s"/><rect class="cell" x="440" y="174" width="11" height="11" rx="2.5" fill="#161B22" style="animation-delay:0.93s"/><rect class="cell" x="440" y="188" width="11" height="11" rx="2.5" fill="#161B22" style="animation-delay:0.93s"/><rect class="cell" x="440" y="202" width="11" height="11" rx="2.5" fill="#161B22" style="animation-delay:0.93s"/><rect class="cell" x="440" y="216" width="11" height="11" rx="2.5" fill="#161B22" style="animation-delay:0.93s"/><rect class="cell" x="440" y="230" width="11" height="11" rx="2.5" fill="#161B22" style="animation-delay:0.93s"/><rect class="cell" x="440" y="244" width="11" height="11" rx="2.5" fill="#161B22" style="animation-delay:0.93s"/><rect class="cell" x="454" y="160" width="11" height="11" rx="2.5" fill="#161B22" style="animation-delay:0.95s"/><rect class="cell" x="454" y="174" width="11" height="11" rx="2.5" fill="#161B22" style="animation-delay:0.95s"/><rect class="cell" x="454" y="188" width="11" height="11" rx="2.5" fill="#161B22" style="animation-delay:0.95s"/><rect class="cell" x="454" y="202" width="11" height="11" rx="2.5" fill="#161B22" style="animation-delay:0.95s"/><rect class="cell" x="454" y="216" width="11" height="11" rx="2.5" fill="#161B22" style="animation-delay:0.95s"/><rect class="cell" x="454" y="230" width="11" height="11" rx="2.5" fill="#161B22" style="animation-delay:0.95s"/><rect class="cell" x="454" y="244" width="11" height="11" rx="2.5" fill="#161B22" style="animation-delay:0.95s"/><rect class="cell" x="468" y="160" width="11" height="11" rx="2.5" fill="#161B22" style="animation-delay:0.97s"/><rect class="cell" x="468" y="174" width="11" height="11" rx="2.5" fill="#161B22" style="animation-delay:0.97s"/><rect class="cell" x="468" y="188" width="11" height="11" rx="2.5" fill="#161B22" style="animation-delay:0.97s"/><rect class="cell" x="468" y="202" width="11" height="11" rx="2.5" fill="#161B22" style="animation-delay:0.97s"/><rect class="cell" x="468" y="216" width="11" height="11" rx="2.5" fill="#161B22" style="animation-delay:0.97s"/><rect class="cell" x="468" y="230" width="11" height="11" rx="2.5" fill="#161B22" style="animation-delay:0.97s"/><rect class="cell" x="468" y="244" width="11" height="11" rx="2.5" fill="#161B22" style="animation-delay:0.97s"/><rect class="cell" x="482" y="160" width="11" height="11" rx="2.5" fill="#161B22" style="animation-delay:0.99s"/><rect class="cell" x="482" y="174" width="11" height="11" rx="2.5" fill="#161B22" style="animation-delay:0.99s"/><rect class="cell" x="482" y="188" width="11" height="11" rx="2.5" fill="#161B22" style="animation-delay:0.99s"/><rect class="cell" x="482" y="202" width="11" height="11" rx="2.5" fill="#161B22" style="animation-delay:0.99s"/><rect class="cell" x="482" y="216" width="11" height="11" rx="2.5" fill="#161B22" style="animation-delay:0.99s"/><rect class="cell" x="482" y="230" width="11" height="11" rx="2.5" fill="#161B22" style="animation-delay:0.99s"/><rect class="cell" x="482" y="244" width="11" height="11" rx="2.5" fill="#161B22" style="animation-delay:0.99s"/><rect class="cell" x="496" y="160" width="11" height="11" rx="2.5" fill="#161B22" style="animation-delay:1.01s"/><rect class="cell" x="496" y="174" width="11" height="11" rx="2.5" fill="#161B22" style="animation-delay:1.01s"/><rect class="cell" x="496" y="188" width="11" height="11" rx="2.5" fill="#161B22" style="animation-delay:1.01s"/><rect class="cell" x="496" y="202" width="11" height="11" rx="2.5" fill="#161B22" style="animation-delay:1.01s"/><rect class="cell" x="496" y="216" width="11" height="11" rx="2.5" fill="#161B22" style="animation-delay:1.01s"/><rect class="cell" x="496" y="230" width="11" height="11" rx="2.5" fill="#161B22" style="animation-delay:1.01s"/><rect class="cell" x="496" y="244" width="11" height="11" rx="2.5" fill="#161B22" style="animation-delay:1.01s"/><rect class="cell" x="510" y="160" width="11" height="11" rx="2.5" fill="#161B22" style="animation-delay:1.03s"/><rect class="cell" x="510" y="174" width="11" height="11" rx="2.5" fill="#161B22" style="animation-delay:1.03s"/><rect class="cell" x="510" y="188" width="11" height="11" rx="2.5" fill="#161B22" style="animation-delay:1.03s"/><rect class="cell" x="510" y="202" width="11" height="11" rx="2.5" fill="#161B22" style="animation-delay:1.03s"/><rect class="cell" x="510" y="216" width="11" height="11" rx="2.5" fill="#161B22" style="animation-delay:1.03s"/><rect class="cell" x="510" y="230" width="11" height="11" rx="2.5" fill="#161B22" style="animation-delay:1.03s"/><rect class="cell" x="510" y="244" width="11" height="11" rx="2.5" fill="#161B22" style="animation-delay:1.03s"/><rect class="cell" x="524" y="160" width="11" height="11" rx="2.5" fill="#161B22" style="animation-delay:1.05s"/><rect class="cell" x="524" y="174" width="11" height="11" rx="2.5" fill="#161B22" style="animation-delay:1.05s"/><rect class="cell" x="524" y="188" width="11" height="11" rx="2.5" fill="#161B22" style="animation-delay:1.05s"/><rect class="cell" x="524" y="202" width="11" height="11" rx="2.5" fill="#161B22" style="animation-delay:1.05s"/><rect class="cell" x="524" y="216" width="11" height="11" rx="2.5" fill="#161B22" style="animation-delay:1.05s"/><rect class="cell" x="524" y="230" width="11" height="11" rx="2.5" fill="#161B22" style="animation-delay:1.05s"/><rect class="cell" x="524" y="244" width="11" height="11" rx="2.5" fill="#161B22" style="animation-delay:1.05s"/><rect class="cell" x="538" y="160" width="11" height="11" rx="2.5" fill="#161B22" style="animation-delay:1.07s"/><rect class="cell" x="538" y="174" width="11" height="11" rx="2.5" fill="#161B22" style="animation-delay:1.07s"/><rect class="cell" x="538" y="188" width="11" height="11" rx="2.5" fill="#161B22" style="animation-delay:1.07s"/><rect class="cell" x="538" y="202" width="11" height="11" rx="2.5" fill="#161B22" style="animation-delay:1.07s"/><rect class="cell" x="538" y="216" width="11" height="11" rx="2.5" fill="#161B22" style="animation-delay:1.07s"/><rect class="cell" x="538" y="230" width="11" height="11" rx="2.5" fill="#161B22" style="animation-delay:1.07s"/><rect class="cell" x="538" y="244" width="11" height="11" rx="2.5" fill="#161B22" style="animation-delay:1.07s"/><rect class="cell" x="552" y="160" width="11" height="11" rx="2.5" fill="#161B22" style="animation-delay:1.09s"/><rect class="cell" x="552" y="174" width="11" height="11" rx="2.5" fill="#161B22" style="animation-delay:1.09s"/><rect class="cell" x="552" y="188" width="11" height="11" rx="2.5" fill="#161B22" style="animation-delay:1.09s"/><rect class="cell" x="552" y="202" width="11" height="11" rx="2.5" fill="#161B22" style="animation-delay:1.09s"/><rect class="cell" x="552" y="216" width="11" height="11" rx="2.5" fill="#161B22" style="animation-delay:1.09s"/><rect class="cell" x="552" y="230" width="11" height="11" rx="2.5" fill="#161B22" style="animation-delay:1.09s"/><rect class="cell" x="552" y="244" width="11" height="11" rx="2.5" fill="#161B22" style="animation-delay:1.09s"/><rect class="cell" x="566" y="160" width="11" height="11" rx="2.5" fill="#161B22" style="animation-delay:1.11s"/><rect class="cell" x="566" y="174" width="11" height="11" rx="2.5" fill="#161B22" style="animation-delay:1.11s"/><rect class="cell" x="566" y="188" width="11" height="11" rx="2.5" fill="#161B22" style="animation-delay:1.11s"/><rect class="cell" x="566" y="202" width="11" height="11" rx="2.5" fill="#161B22" style="animation-delay:1.11s"/><rect class="cell" x="566" y="216" width="11" height="11" rx="2.5" fill="#161B22" style="animation-delay:1.11s"/><rect class="cell" x="566" y="230" width="11" height="11" rx="2.5" fill="#161B22" style="animation-delay:1.11s"/><rect class="cell" x="566" y="244" width="11" height="11" rx="2.5" fill="#161B22" style="animation-delay:1.11s"/><rect class="cell" x="580" y="160" width="11" height="11" rx="2.5" fill="#161B22" style="animation-delay:1.13s"/><rect class="cell" x="580" y="174" width="11" height="11" rx="2.5" fill="#161B22" style="animation-delay:1.13s"/><rect class="cell" x="580" y="188" width="11" height="11" rx="2.5" fill="#161B22" style="animation-delay:1.13s"/><rect class="cell" x="580" y="202" width="11" height="11" rx="2.5" fill="#161B22" style="animation-delay:1.13s"/><rect class="cell" x="580" y="216" width="11" height="11" rx="2.5" fill="#161B22" style="animation-delay:1.13s"/><rect class="cell" x="580" y="230" width="11" height="11" rx="2.5" fill="#161B22" style="animation-delay:1.13s"/><rect class="cell" x="580" y="244" width="11" height="11" rx="2.5" fill="#161B22" style="animation-delay:1.13s"/><rect class="cell" x="594" y="160" width="11" height="11" rx="2.5" fill="#161B22" style="animation-delay:1.15s"/><rect class="cell" x="594" y="174" width="11" height="11" rx="2.5" fill="#161B22" style="animation-delay:1.15s"/><rect class="cell" x="594" y="188" width="11" height="11" rx="2.5" fill="#161B22" style="animation-delay:1.15s"/><rect class="cell" x="594" y="202" width="11" height="11" rx="2.5" fill="#161B22" style="animation-delay:1.15s"/><rect class="cell" x="594" y="216" width="11" height="11" rx="2.5" fill="#161B22" style="animation-delay:1.15s"/><rect class="cell" x="594" y="230" width="11" height="11" rx="2.5" fill="#A5F3FC" style="animation-delay:1.15s"/><rect class="cell" x="594" y="244" width="11" height="11" rx="2.5" fill="#161B22" style="animation-delay:1.15s"/><rect class="cell" x="608" y="160" width="11" height="11" rx="2.5" fill="#161B22" style="animation-delay:1.17s"/><rect class="cell" x="608" y="174" width="11" height="11" rx="2.5" fill="#161B22" style="animation-delay:1.17s"/><rect class="cell" x="608" y="188" width="11" height="11" rx="2.5" fill="#161B22" style="animation-delay:1.17s"/><rect class="cell" x="608" y="202" width="11" height="11" rx="2.5" fill="#161B22" style="animation-delay:1.17s"/><rect class="cell" x="608" y="216" width="11" height="11" rx="2.5" fill="#161B22" style="animation-delay:1.17s"/><rect class="cell" x="608" y="230" width="11" height="11" rx="2.5" fill="#161B22" style="animation-delay:1.17s"/><rect class="cell" x="608" y="244" width="11" height="11" rx="2.5" fill="#161B22" style="animation-delay:1.17s"/><rect class="cell" x="622" y="160" width="11" height="11" rx="2.5" fill="#161B22" style="animation-delay:1.19s"/><rect class="cell" x="622" y="174" width="11" height="11" rx="2.5" fill="#161B22" style="animation-delay:1.19s"/><rect class="cell" x="622" y="188" width="11" height="11" rx="2.5" fill="#161B22" style="animation-delay:1.19s"/><rect class="cell" x="622" y="202" width="11" height="11" rx="2.5" fill="#161B22" style="animation-delay:1.19s"/><rect class="cell" x="622" y="216" width="11" height="11" rx="2.5" fill="#161B22" style="animation-delay:1.19s"/><rect class="cell" x="622" y="230" width="11" height="11" rx="2.5" fill="#161B22" style="animation-delay:1.19s"/><rect class="cell" x="622" y="244" width="11" height="11" rx="2.5" fill="#161B22" style="animation-delay:1.19s"/><rect class="cell" x="636" y="160" width="11" height="11" rx="2.5" fill="#161B22" style="animation-delay:1.21s"/><rect class="cell" x="636" y="174" width="11" height="11" rx="2.5" fill="#161B22" style="animation-delay:1.21s"/><rect class="cell" x="636" y="188" width="11" height="11" rx="2.5" fill="#161B22" style="animation-delay:1.21s"/><rect class="cell" x="636" y="202" width="11" height="11" rx="2.5" fill="#161B22" style="animation-delay:1.21s"/><rect class="cell" x="636" y="216" width="11" height="11" rx="2.5" fill="#161B22" style="animation-delay:1.21s"/><rect class="cell" x="636" y="230" width="11" height="11" rx="2.5" fill="#161B22" style="animation-delay:1.21s"/><rect class="cell" x="636" y="244" width="11" height="11" rx="2.5" fill="#161B22" style="animation-delay:1.21s"/><rect class="cell" x="650" y="160" width="11" height="11" rx="2.5" fill="#161B22" style="animation-delay:1.23s"/><rect class="cell" x="650" y="174" width="11" height="11" rx="2.5" fill="#161B22" style="animation-delay:1.23s"/><rect class="cell" x="650" y="188" width="11" height="11" rx="2.5" fill="#161B22" style="animation-delay:1.23s"/><rect class="cell" x="650" y="202" width="11" height="11" rx="2.5" fill="#161B22" style="animation-delay:1.23s"/><rect class="cell" x="650" y="216" width="11" height="11" rx="2.5" fill="#161B22" style="animation-delay:1.23s"/><rect class="cell" x="650" y="230" width="11" height="11" rx="2.5" fill="#161B22" style="animation-delay:1.23s"/><rect class="cell" x="650" y="244" width="11" height="11" rx="2.5" fill="#161B22" style="animation-delay:1.23s"/><rect class="cell" x="664" y="160" width="11" height="11" rx="2.5" fill="#161B22" style="animation-delay:1.25s"/><rect class="cell" x="664" y="174" width="11" height="11" rx="2.5" fill="#161B22" style="animation-delay:1.25s"/><rect class="cell" x="664" y="188" width="11" height="11" rx="2.5" fill="#161B22" style="animation-delay:1.25s"/><rect class="cell" x="664" y="202" width="11" height="11" rx="2.5" fill="#161B22" style="animation-delay:1.25s"/><rect class="cell" x="664" y="216" width="11" height="11" rx="2.5" fill="#161B22" style="animation-delay:1.25s"/><rect class="cell" x="664" y="230" width="11" height="11" rx="2.5" fill="#161B22" style="animation-delay:1.25s"/><rect class="cell" x="664" y="244" width="11" height="11" rx="2.5" fill="#161B22" style="animation-delay:1.25s"/><rect class="cell" x="678" y="160" width="11" height="11" rx="2.5" fill="#161B22" style="animation-delay:1.27s"/><rect class="cell" x="678" y="174" width="11" height="11" rx="2.5" fill="#161B22" style="animation-delay:1.27s"/><rect class="cell" x="678" y="188" width="11" height="11" rx="2.5" fill="#161B22" style="animation-delay:1.27s"/><rect class="cell" x="678" y="202" width="11" height="11" rx="2.5" fill="#161B22" style="animation-delay:1.27s"/><rect class="cell" x="678" y="216" width="11" height="11" rx="2.5" fill="#161B22" style="animation-delay:1.27s"/><rect class="cell" x="678" y="230" width="11" height="11" rx="2.5" fill="#161B22" style="animation-delay:1.27s"/><rect class="cell" x="678" y="244" width="11" height="11" rx="2.5" fill="#161B22" style="animation-delay:1.27s"/><rect class="cell" x="692" y="160" width="11" height="11" rx="2.5" fill="#161B22" style="animation-delay:1.29s"/><rect class="cell" x="692" y="174" width="11" height="11" rx="2.5" fill="#161B22" style="animation-delay:1.29s"/><rect class="cell" x="692" y="188" width="11" height="11" rx="2.5" fill="#161B22" style="animation-delay:1.29s"/><rect class="cell" x="692" y="202" width="11" height="11" rx="2.5" fill="#161B22" style="animation-delay:1.29s"/><rect class="cell" x="692" y="216" width="11" height="11" rx="2.5" fill="#161B22" style="animation-delay:1.29s"/><rect class="cell" x="692" y="230" width="11" height="11" rx="2.5" fill="#161B22" style="animation-delay:1.29s"/><rect class="cell" x="692" y="244" width="11" height="11" rx="2.5" fill="#161B22" style="animation-delay:1.29s"/><rect class="cell" x="706" y="160" width="11" height="11" rx="2.5" fill="#161B22" style="animation-delay:1.31s"/><rect class="cell" x="706" y="174" width="11" height="11" rx="2.5" fill="#161B22" style="animation-delay:1.31s"/><rect class="cell" x="706" y="188" width="11" height="11" rx="2.5" fill="#161B22" style="animation-delay:1.31s"/><rect class="cell" x="706" y="202" width="11" height="11" rx="2.5" fill="#161B22" style="animation-delay:1.31s"/><rect class="cell" x="706" y="216" width="11" height="11" rx="2.5" fill="#161B22" style="animation-delay:1.31s"/><rect class="cell" x="706" y="230" width="11" height="11" rx="2.5" fill="#161B22" style="animation-delay:1.31s"/><rect class="cell" x="706" y="244" width="11" height="11" rx="2.5" fill="#161B22" style="animation-delay:1.31s"/><rect class="cell" x="720" y="160" width="11" height="11" rx="2.5" fill="#161B22" style="animation-delay:1.33s"/><rect class="cell" x="720" y="174" width="11" height="11" rx="2.5" fill="#161B22" style="animation-delay:1.33s"/><rect class="cell" x="720" y="188" width="11" height="11" rx="2.5" fill="#161B22" style="animation-delay:1.33s"/><rect class="cell" x="720" y="202" width="11" height="11" rx="2.5" fill="#161B22" style="animation-delay:1.33s"/><rect class="cell" x="720" y="216" width="11" height="11" rx="2.5" fill="#161B22" style="animation-delay:1.33s"/><rect class="cell" x="720" y="230" width="11" height="11" rx="2.5" fill="#161B22" style="animation-delay:1.33s"/><rect class="cell" x="720" y="244" width="11" height="11" rx="2.5" fill="#161B22" style="animation-delay:1.33s"/><rect class="cell" x="734" y="160" width="11" height="11" rx="2.5" fill="#161B22" style="animation-delay:1.35s"/><rect class="cell" x="734" y="174" width="11" height="11" rx="2.5" fill="#161B22" style="animation-delay:1.35s"/><rect class="cell" x="734" y="188" width="11" height="11" rx="2.5" fill="#161B22" style="animation-delay:1.35s"/><rect class="cell" x="734" y="202" width="11" height="11" rx="2.5" fill="#161B22" style="animation-delay:1.35s"/><rect class="cell" x="734" y="216" width="11" height="11" rx="2.5" fill="#161B22" style="animation-delay:1.35s"/><rect class="cell" x="734" y="230" width="11" height="11" rx="2.5" fill="#161B22" style="animation-delay:1.35s"/><rect class="cell" x="734" y="244" width="11" height="11" rx="2.5" fill="#161B22" style="animation-delay:1.35s"/><rect class="cell" x="748" y="160" width="11" height="11" rx="2.5" fill="#161B22" style="animation-delay:1.37s"/><rect class="cell" x="748" y="174" width="11" height="11" rx="2.5" fill="#161B22" style="animation-delay:1.37s"/><rect class="cell" x="748" y="188" width="11" height="11" rx="2.5" fill="#161B22" style="animation-delay:1.37s"/><rect class="cell" x="748" y="202" width="11" height="11" rx="2.5" fill="#161B22" style="animation-delay:1.37s"/><rect class="cell" x="748" y="216" width="11" height="11" rx="2.5" fill="#161B22" style="animation-delay:1.37s"/><rect class="cell" x="748" y="230" width="11" height="11" rx="2.5" fill="#161B22" style="animation-delay:1.37s"/><rect class="cell" x="748" y="244" width="11" height="11" rx="2.5" fill="#161B22" style="animation-delay:1.37s"/><rect class="cell" x="762" y="160" width="11" height="11" rx="2.5" fill="#161B22" style="animation-delay:1.39s"/><rect class="cell" x="762" y="174" width="11" height="11" rx="2.5" fill="#161B22" style="animation-delay:1.39s"/><rect class="cell" x="762" y="188" width="11" height="11" rx="2.5" fill="#161B22" style="animation-delay:1.39s"/><rect class="cell" x="762" y="202" width="11" height="11" rx="2.5" fill="#161B22" style="animation-delay:1.39s"/><rect class="cell" x="762" y="216" width="11" height="11" rx="2.5" fill="#161B22" style="animation-delay:1.39s"/><rect class="cell" x="762" y="230" width="11" height="11" rx="2.5" fill="#A5F3FC" style="animation-delay:1.39s"/><rect class="cell" x="762" y="244" width="11" height="11" rx="2.5" fill="#161B22" style="animation-delay:1.39s"/>
<rect class="today" x="760" y="242" width="15" height="15" rx="4" fill="none" stroke="#22D3EE" stroke-width="1.2"/>
<text x="34" y="279" font-size="10" fill="#64748B">less</text><rect x="68" y="270" width="11" height="11" rx="2.5" fill="#161B22"/><rect x="84" y="270" width="11" height="11" rx="2.5" fill="#164E63"/><rect x="100" y="270" width="11" height="11" rx="2.5" fill="#0891B2"/><rect x="116" y="270" width="11" height="11" rx="2.5" fill="#22D3EE"/><rect x="132" y="270" width="11" height="11" rx="2.5" fill="#A5F3FC"/><text x="152" y="279" font-size="10" fill="#64748B">more</text>
<text x="820" y="152" font-size="10" fill="#64748B" letter-spacing="1.5">TOP LANGUAGES</text><text x="820" y="174" font-size="12" fill="#E2E8F0">Python</text><text x="1146" y="174" font-size="12" fill="#94A3B8" text-anchor="end">100.0%</text><rect x="820" y="181" width="326" height="5" rx="2.5" fill="#161B22"/><rect class="bar" x="820" y="181" width="326.0" height="5" rx="2.5" fill="#A78BFA" style="animation-delay:0.60s"/>
<text x="1146" y="304" font-size="10" fill="#334155" text-anchor="end">auto-updated · 2026-10-10 17:16 UTC</text>
</svg>